<?xml version="1.0" encoding="UTF-8"?>
<svg xmlns="http://www.w3.org/2000/svg" xmlns:xlink="http://www.w3.org/1999/xlink" width="15px" height="15px" viewBox="0 0 15 15" version="1.1">
<g id="surface1">
<path style=" stroke:none;fill-rule:nonzero;fill:rgb(0%,0%,0%);fill-opacity:1;" d="M 14.742188 6.234375 L 14.414062 6.234375 C 14.28125 6.234375 14.167969 6.34375 14.167969 6.480469 L 14.167969 10.757812 C 14.167969 10.890625 14.277344 11.003906 14.414062 11.003906 L 14.742188 11.003906 C 14.878906 11.003906 14.988281 10.890625 14.988281 10.757812 L 14.988281 6.480469 C 14.988281 6.34375 14.878906 6.234375 14.742188 6.234375 Z M 14.742188 6.234375 "/>
<path style=" stroke:none;fill-rule:nonzero;fill:rgb(0%,0%,0%);fill-opacity:1;" d="M 0.246094 6.027344 C 0.109375 6.027344 0 6.136719 0 6.273438 L 0 10.964844 C 0 11.101562 0.109375 11.210938 0.246094 11.210938 L 0.914062 11.210938 C 1.050781 11.210938 1.160156 11.101562 1.160156 10.964844 L 1.160156 6.273438 C 1.160156 6.136719 1.050781 6.027344 0.914062 6.027344 Z M 0.246094 6.027344 "/>
<path style=" stroke:none;fill-rule:nonzero;fill:rgb(0%,0%,0%);fill-opacity:1;" d="M 9.601562 11.964844 C 10.152344 11.75 10.699219 11.53125 11.246094 11.316406 C 11.292969 11.300781 11.351562 11.292969 11.402344 11.292969 C 11.808594 11.289062 12.214844 11.289062 12.617188 11.289062 C 13.039062 11.289062 13.308594 11.019531 13.308594 10.59375 L 13.308594 9.207031 C 13.308594 9.109375 13.386719 9.027344 13.484375 9.027344 L 13.660156 9.023438 C 13.800781 9.023438 13.808594 8.96875 13.8125 8.875 L 13.816406 8.066406 C 13.816406 7.988281 13.75 7.921875 13.671875 7.921875 L 13.484375 7.921875 C 13.382812 7.921875 13.304688 7.84375 13.304688 7.742188 L 13.308594 6.058594 C 13.3125 5.808594 13.210938 5.636719 13.023438 5.5 C 12.695312 5.265625 11.726562 4.578125 11.570312 4.476562 C 11.460938 4.40625 11.339844 4.378906 11.207031 4.378906 L 9.539062 4.378906 C 9.398438 4.378906 9.285156 4.261719 9.285156 4.121094 L 9.285156 4.066406 C 9.285156 3.925781 9.402344 3.808594 9.542969 3.808594 L 11.054688 3.808594 C 11.199219 3.808594 11.316406 3.691406 11.316406 3.546875 L 11.316406 3.246094 C 11.316406 3.101562 11.199219 2.984375 11.054688 2.984375 L 6.035156 2.984375 C 5.894531 2.984375 5.777344 3.101562 5.777344 3.246094 L 5.777344 3.546875 C 5.777344 3.691406 5.894531 3.808594 6.035156 3.808594 L 7.671875 3.808594 C 7.816406 3.808594 7.933594 3.925781 7.933594 4.066406 L 7.933594 4.128906 C 7.933594 4.269531 7.816406 4.386719 7.675781 4.386719 L 6.023438 4.378906 C 5.707031 4.371094 5.449219 4.476562 5.207031 4.648438 C 4.859375 4.90625 4.515625 5.167969 4.171875 5.429688 C 4.082031 5.496094 3.972656 5.53125 3.867188 5.527344 C 3.535156 5.527344 3.203125 5.527344 2.871094 5.527344 C 2.460938 5.53125 2.191406 5.796875 2.191406 6.210938 L 2.195312 7.359375 C 2.195312 7.457031 2.117188 7.539062 2.015625 7.539062 L 1.863281 7.539062 C 1.675781 7.539062 1.523438 7.691406 1.523438 7.878906 L 1.523438 9.699219 C 1.523438 9.886719 1.675781 10.039062 1.863281 10.039062 L 2.011719 10.039062 C 2.109375 10.039062 2.191406 10.121094 2.191406 10.21875 C 2.191406 10.480469 2.1875 10.96875 2.191406 11.25 C 2.191406 11.511719 2.183594 12.003906 2.664062 12.003906 L 9.394531 12.003906 C 9.464844 12.003906 9.539062 11.992188 9.601562 11.964844 Z M 9.601562 11.964844 "/>
</g>
</svg>
