<?xml version="1.0" encoding="UTF-8"?>
<svg xmlns="http://www.w3.org/2000/svg" xmlns:xlink="http://www.w3.org/1999/xlink" width="15px" height="15px" viewBox="0 0 15 15" version="1.1">
<g id="surface1">
<path style=" stroke:none;fill-rule:nonzero;fill:rgb(81.960784%,81.960784%,81.960784%);fill-opacity:1;" d="M 2.617188 14.121094 C 1.738281 14.121094 1.023438 13.464844 1.023438 12.65625 C 1.023438 12.179688 1.28125 11.734375 1.695312 11.460938 C 1.679688 11.378906 1.667969 11.292969 1.667969 11.203125 L 1.667969 2.464844 C 1.667969 1.703125 2.289062 1.082031 3.050781 1.082031 L 7.621094 1.082031 C 8.15625 1.082031 8.625 1.390625 8.851562 1.835938 C 9.054688 1.65625 9.320312 1.550781 9.59375 1.550781 C 9.832031 1.550781 10.058594 1.625 10.246094 1.765625 L 13.007812 3.777344 C 13.292969 3.984375 13.460938 4.316406 13.464844 4.667969 L 13.484375 10.132812 C 13.492188 10.417969 13.460938 11.367188 12.808594 12.046875 C 12.417969 12.457031 11.890625 12.671875 11.289062 12.671875 C 9.953125 12.671875 9.179688 11.554688 9.023438 10.511719 L 9.003906 10.410156 L 9.003906 11.203125 C 9.003906 11.292969 8.996094 11.378906 8.980469 11.460938 C 9.394531 11.734375 9.648438 12.179688 9.648438 12.65625 C 9.648438 13.464844 8.933594 14.121094 8.058594 14.121094 Z M 11.210938 10.167969 C 11.21875 10.222656 11.238281 10.28125 11.257812 10.332031 C 11.265625 10.285156 11.269531 10.234375 11.269531 10.195312 C 11.269531 10.179688 11.269531 10.167969 11.269531 10.152344 L 11.257812 7.222656 C 10.730469 7.085938 10.320312 6.8125 10.03125 6.402344 C 9.628906 5.828125 9.542969 5.058594 9.773438 4.15625 L 9.003906 3.597656 L 9.003906 6.949219 C 10.65625 7.441406 10.960938 8.929688 11.164062 9.921875 L 11.199219 10.09375 C 11.203125 10.117188 11.207031 10.144531 11.210938 10.167969 Z M 11.210938 10.167969 "/>
<path style=" stroke:none;fill-rule:nonzero;fill:rgb(27.45098%,27.45098%,27.45098%);fill-opacity:1;" d="M 3.050781 12 L 7.621094 12 C 8.058594 12 8.417969 11.640625 8.417969 11.203125 L 8.417969 2.464844 C 8.417969 2.027344 8.058594 1.667969 7.621094 1.667969 L 3.050781 1.667969 C 2.613281 1.667969 2.257812 2.027344 2.257812 2.464844 L 2.257812 11.203125 C 2.257812 11.640625 2.613281 12 3.050781 12 Z M 3.488281 3.402344 C 3.488281 3.050781 3.773438 2.761719 4.128906 2.761719 L 6.546875 2.761719 C 6.898438 2.761719 7.1875 3.050781 7.1875 3.402344 L 7.1875 4.96875 C 7.1875 5.320312 6.898438 5.609375 6.546875 5.609375 L 4.128906 5.609375 C 3.773438 5.609375 3.488281 5.320312 3.488281 4.96875 Z M 12.898438 10.140625 L 12.878906 4.671875 C 12.878906 4.503906 12.796875 4.347656 12.664062 4.25 L 9.902344 2.238281 C 9.667969 2.066406 9.34375 2.117188 9.175781 2.351562 C 9.003906 2.582031 9.054688 2.910156 9.289062 3.078125 L 10.453125 3.929688 C 10.230469 4.566406 10.070312 5.4375 10.511719 6.066406 C 10.785156 6.457031 11.234375 6.679688 11.84375 6.726562 L 11.855469 10.152344 C 11.855469 10.160156 11.855469 10.167969 11.855469 10.171875 C 11.859375 10.269531 11.832031 10.710938 11.632812 10.921875 C 11.582031 10.972656 11.492188 11.042969 11.289062 11.042969 C 10.75 11.042969 10.636719 10.28125 10.632812 10.253906 C 10.628906 10.238281 10.628906 10.226562 10.625 10.214844 C 10.613281 10.15625 10.601562 10.097656 10.589844 10.039062 C 10.386719 9.042969 10.140625 7.839844 8.726562 7.476562 L 8.726562 8.578125 C 9.28125 8.839844 9.398438 9.410156 9.566406 10.246094 C 9.578125 10.300781 9.589844 10.355469 9.601562 10.410156 C 9.6875 11 10.140625 12.085938 11.289062 12.085938 C 11.726562 12.085938 12.105469 11.933594 12.386719 11.640625 C 12.902344 11.101562 12.902344 10.28125 12.898438 10.140625 Z M 11.195312 5.589844 C 11.035156 5.359375 11.027344 4.945312 11.164062 4.449219 L 11.835938 4.9375 L 11.839844 5.890625 C 11.574219 5.859375 11.328125 5.773438 11.195312 5.589844 Z M 9.0625 12.65625 C 9.0625 13.140625 8.609375 13.535156 8.054688 13.535156 L 2.617188 13.535156 C 2.0625 13.535156 1.609375 13.140625 1.609375 12.65625 C 1.609375 12.3125 1.839844 12.011719 2.171875 11.867188 C 2.371094 12.136719 2.691406 12.308594 3.050781 12.308594 L 7.621094 12.308594 C 7.980469 12.308594 8.300781 12.136719 8.503906 11.867188 C 8.832031 12.011719 9.0625 12.3125 9.0625 12.65625 Z M 9.0625 12.65625 "/>
</g>
</svg>
